<?xml version="1.0" encoding="UTF-8"?>
<svg id="Layer_2" data-name="Layer 2" xmlns="http://www.w3.org/2000/svg" xmlns:xlink="http://www.w3.org/1999/xlink" viewBox="0 0 7298.2 8532">
  <defs>
    <style>
      .cls-1, .cls-2, .cls-3, .cls-4, .cls-5 {
        stroke: #49271a;
      }

      .cls-1, .cls-6 {
        fill: #fff;
      }

      .cls-1, .cls-3 {
        stroke-width: 100px;
      }

      .cls-1, .cls-3, .cls-4, .cls-5 {
        stroke-linecap: round;
        stroke-linejoin: round;
      }

      .cls-2 {
        fill: #f5a9a3;
        stroke-miterlimit: 10;
      }

      .cls-2, .cls-4 {
        stroke-width: 80px;
      }

      .cls-7 {
        clip-path: url(#clippath);
      }

      .cls-8 {
        fill: #f29c9b;
      }

      .cls-9 {
        fill: #e3d3c6;
      }

      .cls-10 {
        fill: #fbcbb9;
      }

      .cls-11 {
        fill: #49271a;
      }

      .cls-12 {
        fill: #49271c;
      }

      .cls-13 {
        fill: #48251c;
      }

      .cls-3, .cls-4 {
        fill: none;
      }

      .cls-5 {
        fill: #e56c79;
        stroke-width: 120px;
      }
    </style>
    <clipPath id="clippath">
      <path class="cls-1" d="M6755.16,3617.81c0,331.38-178.54,635.47-476.27,873.51-388.01,310.35-978.35,508.46-1639.59,508.46-62.23,0-176.62,76.86-237.43,73.4-215.08,44.67-386.68-10.26-617.41-10.26-1589.88,0-2878.72-1122.18-2878.72-2506.46S2194.58,50,3784.46,50s2878.66,1122.18,2878.66,2506.46c0,184.07-50.55,448.94-66.01,536.36s99.48,185.53,126.05,284.34c21.02,78.15,32,158.55,32,240.65Z"/>
    </clipPath>
  </defs>
  <g id="Layer_2-2" data-name="Layer 2">
    <ellipse class="cls-9" cx="3924.18" cy="8047.88" rx="1995.64" ry="484.12"/>
    <ellipse class="cls-12" cx="5653.68" cy="579.6" rx="555.32" ry="521.2"/>
    <ellipse class="cls-13" cx="5293.95" cy="7900.77" rx="226.24" ry="458.29" transform="translate(-3062.28 12441.87) rotate(-84.7)"/>
    <ellipse class="cls-13" cx="2694.47" cy="7900.77" rx="226.24" ry="458.29" transform="translate(-5421.51 9853.51) rotate(-84.7)"/>
    <g>
      <path class="cls-6" d="M6755.16,3617.81c0,331.38-178.54,635.47-476.27,873.51-388.01,310.35-978.35,508.46-1639.59,508.46-62.23,0-176.62,76.86-237.43,73.4-215.08,44.67-386.68-10.26-617.41-10.26-1589.88,0-2878.72-1122.18-2878.72-2506.46S2194.58,50,3784.46,50s2878.66,1122.18,2878.66,2506.46c0,184.07-50.55,448.94-66.01,536.36s99.48,185.53,126.05,284.34c21.02,78.15,32,158.55,32,240.65Z"/>
      <g class="cls-7">
        <path class="cls-10" d="M6755.16,3617.81c0,331.38-178.54,635.47-476.27,873.51-221.46-85.81-378.98-305.86-378.98-563.82,0-332.66,261.96-602.35,585.14-602.35,84.78,0,165.37,18.6,238.11,52.02,21.02,78.15,32,158.55,32,240.65Z"/>
      </g>
      <path class="cls-3" d="M6755.16,3617.81c0,331.38-178.54,635.47-476.27,873.51-388.01,310.35-978.35,508.46-1639.59,508.46-62.23,0-176.62,76.86-237.43,73.4-215.08,44.67-386.68-10.26-617.41-10.26-1589.88,0-2878.72-1122.18-2878.72-2506.46S2194.58,50,3784.46,50s2878.66,1122.18,2878.66,2506.46c0,184.07-50.55,448.94-66.01,536.36s99.48,185.53,126.05,284.34c21.02,78.15,32,158.55,32,240.65Z"/>
    </g>
    <circle class="cls-10" cx="2980.17" cy="4143.25" r="602.33"/>
    <ellipse class="cls-11" cx="5696.47" cy="3046.42" rx="269.83" ry="246.17"/>
    <ellipse class="cls-11" cx="3421.11" cy="3173.21" rx="269.83" ry="246.17"/>
    <rect class="cls-11" x="5345.67" y="2513.47" width="368.86" height="118.52" rx="59.26" ry="59.26" transform="translate(-511.74 3407.69) rotate(-32.82)"/>
    <path class="cls-1" d="M1863.6,4251.88c-165.66,147.91-329.07,206.8-485.55,205.16-148.4-1.52-290.54-57.49-422.41-143.54-75.54-49.28-147.67-108.41-215.67-172.95-91.7-86.84-175.93-183.34-250.86-278.39-53.96-68.43-103.13-136.06-146.76-198.78-15.01-21.63-29.41-42.66-43.09-62.9-55.3-81.8-102.76-172.77-140.87-268-48.56-120.99-82.1-248.91-97.96-373.98-24.79-195.44-6.38-383.76,65.93-527.24,40.29-79.97,97.29-146.03,172.89-191.61,57.55-34.7,112.18-58.64,164.08-73.17,178.12-49.89,323.9,10.88,442.41,127.8,66.97,66,125.25,149.92,175.69,241.99,9.24,16.89,18.29,33.36,27.22,49.47,73.65,133.33,135.82,241.14,188.45,327.43,55,90.24,99.6,156.97,136.12,204.67,.36,.49,.79,.97,1.22,1.52,27.1,33.06,155.39,124.21,294.13,244.42,66.12,57.31,134.6,121.24,195.68,188.57,94.01,103.73,170.22,215.67,192.58,324.15,28.56,138.74-30.75,271.88-253.23,375.38Z"/>
    <path class="cls-8" d="M905.74,2294.3L60.43,2958.51c-24.79-195.44-6.38-383.76,65.93-527.24l336.97-264.77c178.12-49.89,323.9,10.88,442.41,127.8Z"/>
    <path class="cls-8" d="M1297.1,2913.18l-954.76,750.21c-15.01-21.63-29.41-42.66-43.09-62.9-55.3-81.8-102.76-172.77-140.87-268l950.26-746.74c73.65,133.33,135.82,241.14,188.45,327.43Z"/>
    <path class="cls-8" d="M1728.57,3363.79l-988.61,776.76c-91.7-86.84-175.93-183.34-250.86-278.39l945.34-742.79c27.1,33.06,155.39,124.21,294.13,244.42Z"/>
    <path class="cls-8" d="M2116.83,3876.5l-738.78,580.54c-148.4-1.52-290.54-57.49-422.41-143.54l968.61-761.14c94.01,103.73,170.22,215.67,192.58,324.15Z"/>
    <path class="cls-3" d="M1863.6,4251.88c-165.66,147.91-329.07,206.8-485.55,205.16-148.4-1.52-290.54-57.49-422.41-143.54-75.54-49.28-147.67-108.41-215.67-172.95-91.7-86.84-175.93-183.34-250.86-278.39-53.96-68.43-103.13-136.06-146.76-198.78-15.01-21.63-29.41-42.66-43.09-62.9-55.3-81.8-102.76-172.77-140.87-268-48.56-120.99-82.1-248.91-97.96-373.98-24.79-195.44-6.38-383.76,65.93-527.24,40.29-79.97,97.29-146.03,172.89-191.61,57.55-34.7,112.18-58.64,164.08-73.17,178.12-49.89,323.9,10.88,442.41,127.8,66.97,66,125.25,149.92,175.69,241.99,9.24,16.89,18.29,33.36,27.22,49.47,73.65,133.33,135.82,241.14,188.45,327.43,55,90.24,99.6,156.97,136.12,204.67,.36,.49,.79,.97,1.22,1.52,27.1,33.06,155.39,124.21,294.13,244.42,66.12,57.31,134.6,121.24,195.68,188.57,94.01,103.73,170.22,215.67,192.58,324.15,28.56,138.74-30.75,271.88-253.23,375.38Z"/>
    <rect class="cls-11" x="3398.06" y="2549.42" width="368.86" height="118.52" rx="59.26" ry="59.26" transform="translate(6310.46 6101.2) rotate(-164.05)"/>
    <path class="cls-2" d="M4837.13,3589.79c0,236.27-13.13,427.76-243.26,427.76s-243.32-191.49-243.32-427.76c0-91.15,16.23-175.63,43.88-245.02,67.24,6.98,176.42-17.35,223.63-97.41,59.92,59.28,132.86,87.94,178.24,105.13,25.83,67.88,40.84,149.49,40.84,237.31Z"/>
    <path class="cls-4" d="M4318.27,3225.73c-11.51,158.98,228.62,133.71,299.79,27.67,102.15,120.83,362.06,90.63,235.22-85.33"/>
    <path class="cls-12" d="M2195.54,857.74c-45.87,353.86-284.54,592.52-644.9,644.9-352.46,51.23-644.9-288.73-644.9-644.9S1194.47,212.84,1550.64,212.84s690.69,291.69,644.9,644.9Z"/>
    <path class="cls-1" d="M2487.69,4963.57c-18.29,41.57,1424.46,142.11,1990.16,105.21,318.51-20.77,2419.71-469.57,2640.21-319.72,0,0,158.22,21.29,125.75,125.75-32.47,104.46-221.9,88.76-221.9,88.76,0,0,126.11,79.02,50.72,278.04-75.39,199.02-301.54,292.49-530.71,319.63s-705.6-27.14-705.6-27.14c0,0,186.64,461.89,179.28,908.88-7.36,446.99-231.51,828.25-231.51,828.25,0,0-25.79,262.41-114.46,414.43-88.68,152.01-202.23,237.97-518.93,237.97s-462.38-367.37-462.38-367.37c0,0-494.16,121.3-779.87,137.4-285.71,16.1-784.71-76.46-784.71-76.46,0,0,44.27,273.64-382.29,334-426.56,60.36-539.24-245.47-567.4-293.76-28.17-48.29-56.34-297.79-56.34-297.79,0,0-253.11-227.93-340.64-674.26-87.53-446.33,145.89-1429.72,145.89-1429.72,0,0-284.15-216.25-412.53-706.44-128.38-490.19-30.97-752.46,184.95-810.82,215.92-58.36,431.84,99.34,589.4,484.42s202.95,740.74,202.95,740.74Z"/>
    <path class="cls-13" d="M4603.96,5142.61c151.13,278.14,124.76,497.22,0,550.21-124.82,52.99-299.29,48.8-442.41-198.54,0,0-215.55,394.82-482.15,225.76-266.54-169-28.32-475.34-28.32-475.34,0,0-804.41-137.04-1159.73-237.73-6.68-53.3-22.73-147.49-33.48-209.17,419.49,111.27,931.36,176.6,1483.76,176.6,1050.59,0,1823.43-125.97,2278.21-490.21,18.6-11,153.05-32.1,164.78-41.76-291.46,250.24-717.46,576.17-1780.66,700.18Z"/>
    <path class="cls-5" d="M615.16,4012.11s15.12-1159.22,68.48-1196.57c53.36-37.35,808.31,355.2,808.31,355.2l-269.33-355.2s-560.32-389.56-741.76-320.18c-181.44,69.37-121.9,1191.76-121.9,1191.76l256.2,324.99Z"/>
  </g>
</svg>