<svg xmlns="http://www.w3.org/2000/svg" viewBox="0 0 384 384"><defs><style>.cls-1{fill:#fefefe;}.cls-2{fill:#ccc;}.cls-3{fill:#fd585b;}</style></defs><g id="Layer_2" data-name="Layer 2"><g id="Layer_1-2" data-name="Layer 1"><path class="cls-1" d="M383.93,192q0,94.25.07,188.5c0,2.69-.42,3.51-3.37,3.51q-188.71-.13-377.42,0C.43,384,0,383.32,0,380.71Q.12,192,0,3.33C0,.8.31,0,3.18,0Q192.08.15,381,0c2.63,0,3,.61,3,3.1Q383.87,97.55,383.93,192ZM123.46,24.9c-2.17.39-2.22,2.48-3,3.89q-31.32,59.7-91,91c-1.6.83-3.54,1.23-4.6,2.94q23.15,68.93,0,137.84c.54,1.31,1.89,1.55,2.94,2.09q61.67,31.58,93.35,93.15c.52,1,.56,2.57,2.28,2.57,1.83.65,3.43-.34,5-.84a220,220,0,0,1,58.65-10c23.45-.74,46.33,3.19,68.76,9.88,1.75.52,3.42,1.62,5.39,1,1.72,0,1.76-1.58,2.27-2.58q31.67-61.32,93-92.95c1-.52,2.55-.59,2.61-2.27.61-1.84-.41-3.42-.92-5a221.53,221.53,0,0,1-10-58.29c-.8-23.59,3.16-46.58,9.89-69.14.52-1.75,1.62-3.42,1-5.39-.45-2.12-2.51-2.2-3.93-3a226.68,226.68,0,0,1-47.83-33.62C289.5,69.54,275.59,49.9,264.1,28.46c-.7-1.29-.7-3.31-2.8-3.56-1.84-.61-3.43.38-5.05.88C216.5,38.05,176.58,39.19,136.37,28,132.12,26.86,128.06,24.7,123.46,24.9Z"/><path class="cls-2" d="M24.88,260.55q23.12-68.93,0-137.84c1.46-.17,2.65.61,3.89,1.13q50.77,21,101.53,42.08,28.22,11.72,56.39,23.51a9.35,9.35,0,0,0,0,4.4c-.78.38-1.54.81-2.34,1.14Q110.7,225.5,37,256C33,257.61,29.23,259.81,24.88,260.55Z"/><path class="cls-3" d="M261.3,24.9c2.1.25,2.1,2.27,2.8,3.56,11.49,21.44,25.4,41.08,43.31,57.66a226.68,226.68,0,0,0,47.83,33.62c1.42.76,3.48.84,3.93,3-.59.2-1.19.37-1.76.6q-45.8,18.95-91.6,37.9-33.9,14.07-67.76,28.24a9.62,9.62,0,0,0-3.48-3.49c.32-.67.66-1.33,1-2q18.69-45.09,37.37-90.17Q247.14,59.34,261.3,24.9Z"/><path class="cls-3" d="M359.36,284.74c-.05,1.27-1.2,1.32-2,1.72a159.14,159.14,0,0,0-70.2,70.17c-.39.75-.42,1.94-1.72,1.94-.15-.44-.27-.89-.45-1.32q-14.89-36-29.81-72-10-24.15-20.12-48.28a7,7,0,0,0,2.62-2.63c.86.39,1.7.8,2.56,1.16q32.37,13.43,64.73,26.81Q332.17,273.56,359.36,284.74Z"/><path class="cls-2" d="M194.57,197.29q13.32,32,26.65,64Q241,308.9,260.7,356.61c.23.57.4,1.16.6,1.75-2,.61-3.64-.49-5.39-1-22.43-6.69-45.31-10.62-68.76-9.88a220,220,0,0,0-58.65,10c-1.62.5-3.22,1.49-5,.84.2-.59.36-1.18.6-1.75q19.81-47.85,39.64-95.69,13.2-31.83,26.49-63.62A9.06,9.06,0,0,0,194.57,197.29Z"/><path class="cls-2" d="M261.3,24.9q-14.2,34.44-28.41,68.87-18.64,45.09-37.37,90.17c-.29.68-.63,1.34-1,2a9.31,9.31,0,0,0-4.39,0c-.32-.67-.67-1.33-1-2q-19-45.93-38.09-91.88Q137.26,58.48,123.46,24.9c4.6-.2,8.66,2,12.91,3.14,40.21,11.15,80.13,10,119.88-2.26C257.87,25.28,259.46,24.29,261.3,24.9Z"/><path class="cls-3" d="M123.46,24.9q13.83,33.57,27.68,67.15,19,45.95,38.09,91.88c.28.69.63,1.35,1,2a9.62,9.62,0,0,0-3.49,3.48q-28.18-11.76-56.39-23.51Q79.55,144.86,28.77,123.84c-1.24-.52-2.43-1.3-3.89-1.13,1.06-1.71,3-2.11,4.6-2.94q59.76-31.24,91-91C121.24,27.38,121.29,25.29,123.46,24.9Z"/><path class="cls-2" d="M359.17,260.56q-36-14.85-72-29.69-42.89-17.73-85.74-35.52c-1.14-.47-2.26-1-3.39-1.54a9.1,9.1,0,0,0,0-4.37q33.87-14.12,67.76-28.24,45.78-19,91.6-37.9c.57-.23,1.17-.4,1.76-.6.58,2-.52,3.64-1,5.39-6.73,22.56-10.69,45.55-9.89,69.14a221.53,221.53,0,0,0,10,58.29C358.76,257.14,359.78,258.72,359.17,260.56Z"/><path class="cls-3" d="M190.18,197.3q-13.25,31.8-26.49,63.62-19.86,47.83-39.64,95.69c-.24.57-.4,1.16-.6,1.75-1.72,0-1.76-1.57-2.28-2.57q-31.76-61.53-93.35-93.15c-1.05-.54-2.4-.78-2.94-2.09C29.23,259.81,33,257.61,37,256q73.69-30.44,147.34-61c.8-.33,1.56-.76,2.34-1.14A9.49,9.49,0,0,0,190.18,197.3Z"/><path class="cls-1" d="M190.18,197.3a9.49,9.49,0,0,1-3.48-3.47,9.35,9.35,0,0,1,0-4.4,9.62,9.62,0,0,1,3.49-3.48,9.31,9.31,0,0,1,4.39,0,9.62,9.62,0,0,1,3.48,3.49,9.1,9.1,0,0,1,0,4.37,9.27,9.27,0,0,1-3.47,3.48A9.06,9.06,0,0,1,190.18,197.3Z"/></g></g></svg>