<?xml version="1.0" encoding="UTF-8"?>
<svg id="Layer_2" data-name="Layer 2" xmlns="http://www.w3.org/2000/svg" xmlns:xlink="http://www.w3.org/1999/xlink" viewBox="0 0 11999.82 9173.99">
  <defs>
    <style>
      .cls-1, .cls-2, .cls-3, .cls-4, .cls-5 {
        stroke: #49271a;
      }

      .cls-1, .cls-6 {
        fill: #fff;
      }

      .cls-1, .cls-3 {
        stroke-width: 100px;
      }

      .cls-1, .cls-3, .cls-4, .cls-5 {
        stroke-linecap: round;
        stroke-linejoin: round;
      }

      .cls-2 {
        fill: #f5a9a3;
        stroke-miterlimit: 10;
      }

      .cls-2, .cls-4 {
        stroke-width: 80px;
      }

      .cls-7 {
        clip-path: url(#clippath);
      }

      .cls-8 {
        fill: #f29c9b;
      }

      .cls-9, .cls-5 {
        fill: #e56c79;
      }

      .cls-10 {
        fill: #e3d3c6;
      }

      .cls-11 {
        fill: #fbcbb9;
      }

      .cls-12 {
        fill: #49271a;
      }

      .cls-13 {
        fill: #49271c;
      }

      .cls-14 {
        fill: #48251c;
      }

      .cls-3, .cls-4 {
        fill: none;
      }

      .cls-5 {
        stroke-width: 120px;
      }
    </style>
    <clipPath id="clippath">
      <path class="cls-1" d="M6755.16,4259.8c0,331.38-178.54,635.47-476.27,873.51-388.01,310.35-978.35,508.46-1639.59,508.46-62.23,0-176.62,76.86-237.43,73.4-215.08,44.67-386.68-10.26-617.41-10.26-1589.88,0-2878.72-1122.18-2878.72-2506.46S2194.58,692,3784.46,692s2878.66,1122.18,2878.66,2506.46c0,184.07-50.55,448.94-66.01,536.36s99.48,185.53,126.05,284.34c21.02,78.15,32,158.55,32,240.65Z"/>
    </clipPath>
  </defs>
  <g id="Layer_2-2" data-name="Layer 2">
    <ellipse class="cls-10" cx="3924.18" cy="8689.87" rx="1995.64" ry="484.12"/>
    <ellipse class="cls-13" cx="5653.68" cy="1221.6" rx="555.32" ry="521.2"/>
    <ellipse class="cls-14" cx="5293.95" cy="8542.77" rx="226.24" ry="458.29" transform="translate(-3701.53 13024.53) rotate(-84.7)"/>
    <ellipse class="cls-14" cx="2694.47" cy="8542.77" rx="226.24" ry="458.29" transform="translate(-6060.76 10436.18) rotate(-84.7)"/>
    <g>
      <path class="cls-6" d="M6755.16,4259.8c0,331.38-178.54,635.47-476.27,873.51-388.01,310.35-978.35,508.46-1639.59,508.46-62.23,0-176.62,76.86-237.43,73.4-215.08,44.67-386.68-10.26-617.41-10.26-1589.88,0-2878.72-1122.18-2878.72-2506.46S2194.58,692,3784.46,692s2878.66,1122.18,2878.66,2506.46c0,184.07-50.55,448.94-66.01,536.36s99.48,185.53,126.05,284.34c21.02,78.15,32,158.55,32,240.65Z"/>
      <g class="cls-7">
        <path class="cls-11" d="M6755.16,4259.8c0,331.38-178.54,635.47-476.27,873.51-221.46-85.81-378.98-305.86-378.98-563.82,0-332.66,261.96-602.35,585.14-602.35,84.78,0,165.37,18.6,238.11,52.02,21.02,78.15,32,158.55,32,240.65Z"/>
      </g>
      <path class="cls-3" d="M6755.16,4259.8c0,331.38-178.54,635.47-476.27,873.51-388.01,310.35-978.35,508.46-1639.59,508.46-62.23,0-176.62,76.86-237.43,73.4-215.08,44.67-386.68-10.26-617.41-10.26-1589.88,0-2878.72-1122.18-2878.72-2506.46S2194.58,692,3784.46,692s2878.66,1122.18,2878.66,2506.46c0,184.07-50.55,448.94-66.01,536.36s99.48,185.53,126.05,284.34c21.02,78.15,32,158.55,32,240.65Z"/>
    </g>
    <circle class="cls-11" cx="2980.17" cy="4785.25" r="602.33"/>
    <ellipse class="cls-12" cx="5696.47" cy="3688.42" rx="269.83" ry="246.17"/>
    <ellipse class="cls-12" cx="3421.11" cy="3815.21" rx="269.83" ry="246.17"/>
    <rect class="cls-12" x="5345.67" y="3155.47" width="368.86" height="118.52" rx="59.26" ry="59.26" transform="translate(-859.68 3510.15) rotate(-32.82)"/>
    <path class="cls-1" d="M1863.6,4893.88c-165.66,147.91-329.07,206.8-485.55,205.16-148.4-1.52-290.54-57.49-422.41-143.54-75.54-49.28-147.67-108.41-215.67-172.95-91.7-86.84-175.93-183.34-250.86-278.39-53.96-68.43-103.13-136.06-146.76-198.78-15.01-21.63-29.41-42.66-43.09-62.9-55.3-81.8-102.76-172.77-140.87-268-48.56-120.99-82.1-248.91-97.96-373.98-24.79-195.44-6.38-383.76,65.93-527.24,40.29-79.97,97.29-146.03,172.89-191.61,57.55-34.7,112.18-58.64,164.08-73.17,178.12-49.89,323.9,10.88,442.41,127.8,66.97,66,125.25,149.92,175.69,241.99,9.24,16.89,18.29,33.36,27.22,49.47,73.65,133.33,135.82,241.14,188.45,327.43,55,90.24,99.6,156.97,136.12,204.67,.36,.49,.79,.97,1.22,1.52,27.1,33.06,155.39,124.21,294.13,244.42,66.12,57.31,134.6,121.24,195.68,188.57,94.01,103.73,170.22,215.67,192.58,324.15,28.56,138.74-30.75,271.88-253.23,375.38Z"/>
    <path class="cls-8" d="M905.74,2936.29L60.43,3600.51c-24.79-195.44-6.38-383.76,65.93-527.24l336.97-264.77c178.12-49.89,323.9,10.88,442.41,127.8Z"/>
    <path class="cls-8" d="M1297.1,3555.17l-954.76,750.21c-15.01-21.63-29.41-42.66-43.09-62.9-55.3-81.8-102.76-172.77-140.87-268l950.26-746.74c73.65,133.33,135.82,241.14,188.45,327.43Z"/>
    <path class="cls-8" d="M1728.57,4005.78l-988.61,776.76c-91.7-86.84-175.93-183.34-250.86-278.39l945.34-742.79c27.1,33.06,155.39,124.21,294.13,244.42Z"/>
    <path class="cls-8" d="M2116.83,4518.5l-738.78,580.54c-148.4-1.52-290.54-57.49-422.41-143.54l968.61-761.14c94.01,103.73,170.22,215.67,192.58,324.15Z"/>
    <path class="cls-3" d="M1863.6,4893.88c-165.66,147.91-329.07,206.8-485.55,205.16-148.4-1.52-290.54-57.49-422.41-143.54-75.54-49.28-147.67-108.41-215.67-172.95-91.7-86.84-175.93-183.34-250.86-278.39-53.96-68.43-103.13-136.06-146.76-198.78-15.01-21.63-29.41-42.66-43.09-62.9-55.3-81.8-102.76-172.77-140.87-268-48.56-120.99-82.1-248.91-97.96-373.98-24.79-195.44-6.38-383.76,65.93-527.24,40.29-79.97,97.29-146.03,172.89-191.61,57.55-34.7,112.18-58.64,164.08-73.17,178.12-49.89,323.9,10.88,442.41,127.8,66.97,66,125.25,149.92,175.69,241.99,9.24,16.89,18.29,33.36,27.22,49.47,73.65,133.33,135.82,241.14,188.45,327.43,55,90.24,99.6,156.97,136.12,204.67,.36,.49,.79,.97,1.22,1.52,27.1,33.06,155.39,124.21,294.13,244.42,66.12,57.31,134.6,121.24,195.68,188.57,94.01,103.73,170.22,215.67,192.58,324.15,28.56,138.74-30.75,271.88-253.23,375.38Z"/>
    <rect class="cls-12" x="3398.06" y="3191.42" width="368.86" height="118.52" rx="59.26" ry="59.26" transform="translate(6134.08 7360.49) rotate(-164.05)"/>
    <path class="cls-2" d="M4837.13,4231.79c0,236.27-13.13,427.76-243.26,427.76s-243.32-191.49-243.32-427.76c0-91.15,16.23-175.63,43.88-245.02,67.24,6.98,176.42-17.35,223.63-97.41,59.92,59.28,132.86,87.94,178.24,105.13,25.83,67.88,40.84,149.49,40.84,237.31Z"/>
    <path class="cls-4" d="M4318.27,3867.73c-11.51,158.98,228.62,133.71,299.79,27.67,102.15,120.83,362.06,90.63,235.22-85.33"/>
    <path class="cls-13" d="M2195.54,1499.74c-45.87,353.86-284.54,592.52-644.9,644.9-352.46,51.23-644.9-288.73-644.9-644.9s288.73-644.9,644.9-644.9,690.69,291.69,644.9,644.9Z"/>
    <path class="cls-1" d="M2487.69,5605.56c-18.29,41.57,1424.46,142.11,1990.16,105.21,318.51-20.77,2419.71-469.57,2640.21-319.72,0,0,158.22,21.29,125.75,125.75-32.47,104.46-221.9,88.76-221.9,88.76,0,0,126.11,79.02,50.72,278.04-75.39,199.02-301.54,292.49-530.71,319.63s-705.6-27.14-705.6-27.14c0,0,186.64,461.89,179.28,908.88-7.36,446.99-231.51,828.25-231.51,828.25,0,0-25.79,262.41-114.46,414.43-88.68,152.01-202.23,237.97-518.93,237.97s-462.38-367.37-462.38-367.37c0,0-494.16,121.3-779.87,137.4-285.71,16.1-784.71-76.46-784.71-76.46,0,0,44.27,273.64-382.29,334-426.56,60.36-539.24-245.47-567.4-293.76-28.17-48.29-56.34-297.79-56.34-297.79,0,0-253.11-227.93-340.64-674.26-87.53-446.33,145.89-1429.72,145.89-1429.72,0,0-284.15-216.25-412.53-706.44-128.38-490.19-30.97-752.46,184.95-810.82,215.92-58.36,431.84,99.34,589.4,484.42s202.95,740.74,202.95,740.74Z"/>
    <path class="cls-14" d="M4603.96,5784.6c151.13,278.14,124.76,497.22,0,550.21-124.82,52.99-299.29,48.8-442.41-198.54,0,0-215.55,394.82-482.15,225.76-266.54-169-28.32-475.34-28.32-475.34,0,0-804.41-137.04-1159.73-237.73-6.68-53.3-22.73-147.49-33.48-209.17,419.49,111.27,931.36,176.6,1483.76,176.6,1050.59,0,1823.43-125.97,2278.21-490.21,18.6-11,153.05-32.1,164.78-41.76-291.46,250.24-717.46,576.17-1780.66,700.18Z"/>
    <path class="cls-5" d="M615.16,4654.11s15.12-1159.22,68.48-1196.57c53.36-37.35,808.31,355.2,808.31,355.2l-269.33-355.2s-560.32-389.56-741.76-320.18c-181.44,69.37-121.9,1191.76-121.9,1191.76l256.2,324.99Z"/>
    <g>
      <path class="cls-8" d="M7341.73,592.99l207.76,739.97c4.68,15.86-1.98,33.75-18.34,41.23-18.45,9.43-38.83,16.77-57.14,22.17-30.51,9-58.44,13.26-78.68,16.59-16.59,2.24-32.75-7.58-37.79-24.66l-54-160.51c-5.18-13.06-17.83-19.94-31.25-15.98l-125.34,38.31c-13.42,3.96-21.52,16.97-17.56,30.39l42.3,161.31c5.04,17.09-4.42,34.47-20.79,41.95-21.24,8.92-43.21,15.41-62.74,21.17-25.63,7.56-50.39,13.55-67.84,17.37-17.81,2.6-35.55-8.08-41.81-24.8l-221.9-738.45c-5.76-19.53,6.28-41.65,25.45-48.64,17.95-6.62,37.47-12.38,55.77-17.78,29.29-8.64,57.72-15.71,78.82-20.61,21.11-4.9,43.23,7.14,49.36,27.89l.72,2.44,93.46,357.14c3.6,12.2,16.96,21.52,30.39,17.56l2.44-.72,129.28-47.44c12.2-3.6,18.72-17.47,16.34-30.03l-104.72-345.86c-6.48-21.97,4.34-43.73,26.3-50.21,0,0,37.11-13.61,74.94-24.77,19.53-5.76,39.05-11.52,54.41-13.41,21.97-6.48,45.68,6.42,52.16,28.38Z"/>
      <path class="cls-8" d="M8214.5,808.49c39.25,133.02,73.15,292.83,90.9,384.43,8.58,42.57-19.88,85.47-66.26,99.15l-197.7,58.34c-211.12,62.3-353.3-28.4-390.76-155.32-14.77-50.04-13.67-104.75,6.32-158.41,40.11-111.33,173.18-163.87,259.83-189.44,20.75-6.12,38.19-9.95,51.61-13.91,19.53-5.76,22.03-19.77,19.07-38.79-1.66-10.12-3.32-20.24-6.2-30.01-12.96-43.93-43.87-81.24-108.77-67.39-4.88,1.44-10.12,1.66-13.79,2.74-59.8,17.65-87.68,67-90.58,115.62-1.06,18.88-15.76,36.49-35.29,42.25-3.66,1.08-7.32,2.16-11.34,2.02l-89.24,7.76c-21.83,2.46-42.73-9.94-48.49-29.47-1.08-3.66-1.8-6.1-1.66-10.12-7.75-228.55,150.46-285.85,222.46-307.1l19.52-5.76c58.58-17.29,244.67-43.02,329.7,128.23,20.29,41.77,41.6,100.49,60.68,165.17Zm-156.4,225.25c-8.64-29.29-27.39-34.37-49.72-29.1-8.54,2.52-18.67,4.18-28.43,7.06-46.37,13.68-96.33,37.71-95.49,94.51,.58,6.46,.8,11.7,2.24,16.59,13.68,46.37,84.77,39.99,139.68,23.78l18.3-5.4c21.25-8.92,36.31-25.31,31.41-46.42l-18.01-61.02Z"/>
      <path class="cls-8" d="M8233.94,135.02c21.97-6.48,45.15-13.33,69.06-17.73,21.47-3.68,42.87,5.92,48.27,24.23l58.34,197.7c7.92,26.85,38.52,108.03,121.5,83.54l12.2-3.6c77.16-30.73,57.33-120.4,49.05-148.46l-55.46-187.93c-4.68-15.86,6-33.61,23.95-40.23,19.16-6.98,46.87-16.49,77.38-25.49,19.52-5.76,41.85-11.02,62.96-15.92,18.66-4.18,36.91,3.7,41.59,19.56,16.49,46.87,51.84,153.19,85.33,266.68,32.77,111.05,63.68,229.29,73.67,312.57,25.67,199.38-212.78,294.95-266.47,310.8-46.37,13.68-157.65,41.22-250.29,19.47-15.95-4.58-25.29-13.76-29.25-27.19-2.52-8.54-2.6-17.81-1.46-27.43l5.66-93.21c.92-14.86,13.76-25.29,30.85-30.33,7.32-2.16,16.59-2.24,24.63-1.96,27.29,2.56,97.73,3,150.57-11.27l8.54-2.52c131.8-38.9,118.51-119.88,104.09-191.24l-.36-1.22c-1.44-4.88-7.41-7.1-12.29-5.66-2.44,.72-3.66,1.08-5.74,3.02-19.22,20.27-61.56,56.64-131.12,77.16-9.76,2.88-19.52,5.76-30.87,7.78-148.82,30.65-254.96-54.77-295.65-192.67-28.09-95.19-54.88-181.47-69.43-226.27l-.72-2.44c-5.04-17.09,7.72-36.77,27.75-45.34,20.39-7.34,45.65-16.13,73.72-24.41Z"/>
      <path class="cls-8" d="M9676.76,373.83c3.6,12.2,7.56,25.63,10.3,39.41,75.61,314.65-89.76,473.56-211.79,509.58-98.85,29.17-345.54,60.84-467.88-322.26l-3.6-12.21c-114.16-386.85,229.26-490.85,229.26-490.85,233.09-68.79,377.81,53.01,443.72,276.33Zm-199.84,73.57c-47.9-162.31-157.81-139.16-179.78-132.68l-4.88,1.44s-124.53,50.02-76.63,212.32c48.98,165.97,125.78,214.94,205.1,191.53,9.76-2.88,124.26-41.98,56.19-272.62Z"/>
    </g>
    <g>
      <path class="cls-9" d="M7933.59,4275.7l-140.79,626.74c-2.85,13.53-14.85,24.04-29.85,23.05-17.31-.39-35.22-3.07-50.83-6.36-26.01-5.48-48.25-13.43-64.46-19.02-13.09-4.93-21.08-18.57-18.01-33.14l23.97-139.49c1.37-11.67-5.2-21.74-16.65-24.16l-107.4-21.55c-11.44-2.41-22.56,3.94-24.98,15.38l-32.89,135.44c-3.07,14.57-16.93,23.6-31.94,22.61-19.17-1.87-37.9-5.81-54.55-9.32-21.85-4.61-42.44-10.03-56.79-14.14-14.13-5.15-22.95-20.05-20.91-34.84l129.79-631.24c3.51-16.65,21.15-28.15,38.02-25.68,15.83,2.25,32.47,5.76,48.08,9.05,24.97,5.26,48.69,11.35,66.16,16.12,17.47,4.77,28.97,22.41,25.24,40.1l-.44,2.08-72.97,299.79c-2.19,10.4,3.94,22.56,15.38,24.98l2.08,.44,113.92,16.41c10.4,2.19,20.7-5.42,23.94-15.6l60.21-295.96c3.95-18.73,20.55-30.45,39.27-26.5,0,0,32.7,4.72,64.95,11.52,16.65,3.51,33.3,7.02,45.34,11.73,18.73,3.95,31.05,22.85,27.1,41.57Z"/>
      <path class="cls-9" d="M8490.07,4780.53c-23.91,113.42-62.39,244.42-85.68,318.85-10.58,34.72-48.54,54.98-88.08,46.64l-168.57-35.53c-180.01-37.94-248.61-161.08-225.8-269.3,8.99-42.66,31.51-82.48,67.5-114.01,73.68-65.98,192.41-51.82,266.29-36.25,17.69,3.73,32.04,7.84,43.48,10.25,16.65,3.51,24.04-5.8,29.42-20.97,2.79-8.1,5.59-16.21,7.34-24.54,7.9-37.46-.04-77.17-53.27-92.73-4.16-.88-8.1-2.8-11.23-3.45-50.99-10.75-91.08,14.49-112.51,49.1-8.27,13.47-26.07,20.59-42.72,17.08-3.12-.66-6.24-1.32-9.15-3.01l-68.73-29.7c-17.03-6.85-27.49-24.27-23.98-40.92,.66-3.12,1.1-5.2,2.79-8.1,84.99-171.19,224.1-150.56,285.49-137.62l16.65,3.51c49.95,10.53,197.04,65.44,191.64,225.15-1.65,38.78-9.28,90.42-20.9,145.57Zm-204.42,103.63c5.26-24.97-6.51-36.15-25.02-41.14-7.28-1.54-15.39-4.33-23.71-6.09-39.54-8.33-85.82-10.48-107.74,31.63-2.14,4.98-4.05,8.93-4.93,13.09-8.33,39.54,46.49,63.05,93.31,72.92l15.61,3.29c19.17,1.87,36.75-4.21,41.52-21.68l10.97-52.03Z"/>
      <path class="cls-9" d="M8771.6,4292.86c18.73,3.95,38.5,8.12,57.83,14.36,17.25,5.81,29.19,21.37,25.9,36.97l-35.53,168.57c-4.83,22.89-14.54,94.75,56.22,109.66l10.4,2.19c68.95,8.01,89.95-65.81,94.99-89.74l33.78-160.25c2.85-13.53,17.75-22.34,33.58-20.09,16.87,2.47,41.02,6.47,67.04,11.95,16.65,3.51,35.16,8.5,52.63,13.27,15.39,4.33,25.68,17.37,22.83,30.89-6.47,41.02-22.65,133.25-43.05,230.02-19.96,94.69-44.14,193.93-69.84,259.15-60.23,156.84-273.55,132.53-319.33,122.88-39.54-8.33-132.31-32.24-191.83-84.99-9.91-9.7-13.14-20.16-10.73-31.6,1.54-7.28,5.15-14.13,9.81-20.75l41.15-66.32c6.57-10.57,20.16-13.14,34.73-10.07,6.24,1.32,13.09,4.93,18.89,8.33,19.06,12.71,70.7,40.98,115.22,51.45l7.28,1.53c112.38,23.69,134.74-41.15,152.45-99.37l.22-1.04c.88-4.16-2.63-8.16-6.79-9.04-2.08-.44-3.12-.66-5.42-.05-22.18,7.28-67.76,17.23-127.07,4.73-8.32-1.75-16.65-3.51-25.79-6.52-121.63-36.5-165.81-141.45-141.03-259.04,17.11-81.17,31.64-155.26,38.71-193.98l.44-2.08c3.07-14.57,20.27-23.98,38.4-22.34,17.91,2.69,39.98,6.25,63.91,11.3Z"/>
      <path class="cls-9" d="M9738.14,5041.02c-2.19,10.4-4.61,21.85-8.06,33.08-69.24,261.45-253.93,312.73-357.98,290.79-84.29-17.77-278.32-92.35-216.29-422.7l2.19-10.41c69.52-329.86,363.4-270.09,363.4-270.09,198.75,41.89,256.88,188.9,216.74,379.33Zm-176.19-25.18c29.17-138.4-60.86-164.98-79.59-168.93l-4.16-.88s-111.45-12.62-140.62,125.77,7.24,208.01,74.87,222.27c8.32,1.75,108.06,18.43,149.51-178.24Z"/>
    </g>
    <g>
      <path class="cls-13" d="M8393.96,3368.13c-30.74,6.39-63.47,11.11-96.35,14-49.33,4.34-95.33,4.7-122.9,5.29-22.08,.1-41.96-16.56-43.89-38.48l-42.27-480.51c-36.64-416.55-117.35-413.14-168.51-408.64-51.15,4.5-160.89,54.66-144.58,323.87,11.07,188.67,28.99,476.15,36.81,585.93,.42,25.74-17.74,49.44-43,55.34-25.42,4.08-50.83,8.15-78.24,10.56-40.19,3.54-78.72,5.08-108.12,5.83-25.73,.42-49.43-17.75-53.67-44.99-37.17-234.24-72.49-593.84-94.83-847.79-10.61-120.58-17.3-217.58-21.8-268.73-1.93-21.93,12.75-43.47,36.34-47.38,45.19-9.5,96.19-15.82,141.86-19.84,32.89-2.89,64.11-3.8,84.36-3.74,23.91-.26,42.12,18.39,44.05,40.31l.32,3.65,.52,47.82c.48,5.48,4.46,8.81,8.11,8.49,3.66-.32,7.15-2.47,8.82-4.46,34.83-43.57,120.39-117.38,237.32-127.66,323.38-28.45,388.45,376.41,401.15,520.74,2.73,31.05,2.51,49.49,2.51,49.49l50.63,575.51c1.93,21.92-12.9,41.64-34.67,45.4Z"/>
      <path class="cls-13" d="M9408.22,2612.42c17.52,199.14,19.82,434.61,18.76,569.1-.02,62.6-52.47,115.09-121.9,121.19l-295.98,26.04c-316.07,27.8-491.09-140.92-507.81-330.92-6.59-74.91,10.57-151.9,54.12-222.02,88.43-145.87,291.45-182.13,421.17-193.55,31.06-2.73,56.8-3.16,76.9-4.92,29.23-2.57,36.76-21.64,38-49.37,.54-14.77,1.08-29.55-.2-44.17-5.79-65.77-38.82-127.31-134.46-126.26-7.31,.64-14.77-.54-20.26-.06-89.52,7.87-143,69.66-160.97,137.52-6.88,26.38-32.68,47.06-61.92,49.63-5.48,.48-10.96,.96-16.6-.38l-128.31-14.49c-31.54-2.75-57.55-26.24-60.12-55.47-.48-5.48-.8-9.13,.54-14.77,54.25-325.13,294.13-360.96,401.92-370.45l29.23-2.57c87.69-7.71,357.97,9.02,429.27,275.23,16.75,64.81,30.1,153.85,38.62,250.68Zm-285.24,273.64c-3.86-43.85-28.9-56.37-61.94-55.31-12.79,1.13-27.57,.58-42.18,1.86-69.43,6.11-146.86,25.81-161.88,106.3-1.02,9.29-2.21,16.76-1.56,24.07,6.11,69.43,108.36,80.69,190.58,73.46l27.4-2.41c32.57-6.55,58.53-25.4,57.62-56.62l-8.04-91.35Z"/>
      <path class="cls-13" d="M10578.9,3048.89c1.29,14.62-4.9,28.05-22.21,40.62-61.21,36.68-127.9,73.85-216.68,111.12-8.82,4.46-17.95,5.26-27.09,6.06-38.37,3.38-61.04-24.09-77.9-48.38l-286.08-405.66c-2.15-3.5-7.8-4.84-11.45-4.52-7.31,.64-14.13,6.77-13.49,14.08,12.65,101.99,46.07,314.46,58.25,410.97l.32,3.65c2.57,29.23-17.27,54.92-44.35,60.98-39.71,9.02-77.92,14.22-114.46,17.43-52.98,4.66-99.14,3.2-130.52,2.28-27.57,.58-51.58-21.24-54.15-50.47-35.72-280.39-101.14-961.38-115.12-1120.33-1.77-20.1,11.41-37.83,29.35-43.09,48.68-11.65,92.38-17.34,130.74-20.71,56.63-4.98,99.14-3.19,126.87-1.95,20.42,1.89,36.48,17.04,38.25,37.14l20.37,357.23c.64,7.31,6.45,10.48,11.93,10,1.83-.16,5.32-2.31,6.99-4.3l331.65-415.81c10-11.93,20.64-16.54,33.43-17.67,10.96-.96,20.26,.06,30.04,6.56,87.52,53.06,142.63,114.49,171.59,150.61,6.12,6.82,8.75,15.8,9.56,24.94,1.29,14.61-2.91,29.72-13.07,39.81-78.09,74.99-255.73,232.38-325.65,295.61-10.32,8.27-14.84,19.71-13.71,32.5,.64,7.31,5.1,16.13,11.23,22.95l420.51,426.98c14.24,15.32,32.77,37.62,34.86,61.37Z"/>
      <path class="cls-13" d="M11480.02,2430.17c17.52,199.14,19.82,434.61,18.76,569.1-.02,62.6-52.47,115.09-121.9,121.19l-295.98,26.04c-316.07,27.8-491.09-140.92-507.81-330.92-6.59-74.91,10.57-151.9,54.12-222.02,88.43-145.87,291.45-182.13,421.17-193.55,31.06-2.73,56.8-3.16,76.9-4.92,29.23-2.57,36.76-21.64,38-49.37,.54-14.77,1.08-29.55-.2-44.17-5.79-65.77-38.82-127.31-134.46-126.26-7.31,.64-14.77-.54-20.26-.06-89.52,7.87-143,69.66-160.97,137.52-6.88,26.38-32.68,47.06-61.92,49.63-5.48,.48-10.96,.96-16.6-.38l-128.31-14.49c-31.54-2.75-57.55-26.24-60.12-55.47-.48-5.48-.8-9.13,.54-14.77,54.25-325.13,294.13-360.96,401.92-370.45l29.23-2.57c87.69-7.71,357.97,9.02,429.27,275.23,16.75,64.81,30.1,153.85,38.62,250.68Zm-285.24,273.64c-3.86-43.85-28.9-56.37-61.94-55.31-12.79,1.13-27.57,.58-42.18,1.86-69.43,6.11-146.86,25.81-161.88,106.3-1.02,9.29-2.21,16.76-1.56,24.07,6.11,69.43,108.36,80.69,190.58,73.46l27.4-2.41c32.57-6.55,58.53-25.4,57.62-56.62l-8.04-91.35Z"/>
      <path class="cls-13" d="M11950.04,3064.53c-61.95,7.29-122.25,12.59-175.23,17.26-31.06,2.73-57.06-20.76-59.8-51.81,0,0-71.86-523.93-104.48-894.81-7.07-80.39-13.34-151.64-14.83-210.43-2.73-31.06,18.6-60.55,47.84-63.12,43.53-7.51,125.58-16.57,202.15-25.15,36.54-3.21,62.87,23.93,66.24,62.3,0,0,56.01,720.49,56.18,722.31l31.44,378.35c2.89,32.89-18.45,62.38-49.51,65.12Z"/>
    </g>
    <g>
      <path class="cls-8" d="M9849.8,3998.2c-11.53,93.56-38.7,134.95-78.85,167.38-40.15,32.43-127.75,27.14-178.45,20.9-8.46-1.04-15.62-2.53-21.66-3.28-8.38-1.65-13.6-9.03-12.63-16.88l8.96-52.82c1.5-7.17,8.88-12.38,17.33-11.34,12.07,1.49,24.06,3.58,52.44,7.07l3.02,.37c81.49,10.05,105.02-41.6,110.47-70.95l.15-1.2c.52-4.23-2.05-8.21-6.28-8.74-1.2-.15-2.48,.3-3.77,.76-15.45,6.06-46.76,6.49-69.7,3.67-6.65-.82-12-2.1-16.75-3.29-61.28-14.91-98.09-59.28-89.11-137.21l.3-2.42c9.37-76.06,75.54-110.79,132.89-103.73,39.83,4.91,61.14,21.02,70.36,30.73,.53,.68,1.13,.75,2.34,.9,1.8,.23,4.37-.68,4.66-3.1l.37-3.01c.89-7.25,7.67-12.55,15.6-12.18,7.93,.37,15.77,1.34,23.62,2.3,12.66,1.56,24.06,3.57,32.44,5.22,7.17,1.5,12.54,7.68,12.25,15-.12,15.92-1.95,50.62-6.04,128.55-.88,17.05-2.2,32.82-3.99,47.31Zm-84.8-87.67c.82-6.64,.5-14.04-1.92-19.23-6.66-15.53-24.05-33.61-50.61-36.88-4.82-.59-10.34-.65-16.52-.19-27.98,3.29-43.71,21.57-46.17,41.49-2.68,21.73,10.87,46.07,41.73,54.16,4.76,1.2,8.9,2.33,13.13,2.85,22.34,2.75,37.48-5.8,47.05-13.82,6.85-5.89,11.89-16.91,13.31-28.39Z"/>
      <path class="cls-8" d="M10224.42,4036.4c-.74,6.04-1.56,12.68-2.99,19.25-26.74,152.35-129.49,190.55-189.86,183.11-48.89-6.02-163.09-39.09-143.81-230.36l.75-6.04c23.58-191.35,193.95-171.58,193.95-171.58,115.3,14.21,155.57,95.16,141.95,205.62Zm-101.62-5.78c9.89-80.29-42.71-91.06-53.57-92.4l-2.41-.3s-64.13-1.77-74.03,78.5c-10.11,82.1,14.24,118.19,53.48,123.02,4.83,.6,62.47,5.25,76.53-108.83Z"/>
      <path class="cls-8" d="M10565.4,4168.49c-4.09,33.21-21.74,76.99-71.8,100.24-39.64,18.4-121.81,13.79-187.6,5.68-11.47-1.42-21.66-3.28-31.92-4.55-18.04-2.84-30.66-19.71-28.43-37.82l12.94-105.03c6.26-50.71,22.34-171.29,32.84-246.6,1.64-13.27,13.24-22.87,26.67-22.44,17.58,1.55,35.76,3.18,53.27,5.34,103.22,12.72,200.59,43.11,193.47,115.77l-.23,1.81c-7.66,62.17-64.9,74.11-86.62,76.34l-.67,.53c-.08,.61,.45,1.28,1.05,1.36,58.79,15.21,78.25,51.31,85.75,74.91,2.12,7.61,3.05,19.99,1.26,34.47Zm-191.59,8.26c30.78,3.8,76.49,.85,81.1-36.57l.23-1.82c2.36-29.12-32.29-46.26-63.68-50.13l-4.23-.52c-8.53-.44-25.66-.71-27,10.16l-7.13,62.85c-1.04,8.45,6.81,14.33,14.66,15.29l6.04,.74Zm-5.48-154.49c-.37,3.02,3.1,4.68,6.12,5.05,21.2,2,65.7-6.01,69.12-33.77l.22-1.81c.87-21.95-24.04-28.7-44.56-31.23-7.85-.97-14.49-1.79-19.39-1.77-3.01-.37-5.66,1.13-6.03,4.16l-5.48,59.38Z"/>
      <path class="cls-8" d="M10924.87,4344.55c-32.81-2.21-198.58-19.57-284.3-30.14l-30.79-3.79c-10.86-1.34-18.27-10.84-17-21.09,0,0,11.92-171.34,26.95-293.27,3.42-27.77,7.15-53.06,10.81-72.82,1.34-10.86,10.23-18.35,21.17-17.61,15.17,1.26,43,4.08,70.24,6.82l1.21,.15c12.07,1.48,18.66,12.71,17.17,24.78,0,0-31.65,236.93-31.73,237.54l-4.47,31.32-.15,1.2c-.97,7.85,4.93,14.71,12.77,15.67,0,0,74.63,11.03,139.22,18.99,31.99,3.95,62.25,7.06,79.3,7.93,8.45,1.04,14.79,9.17,14.36,17.71l-7.81,63.38c-1.04,8.44-9.11,14.2-16.96,13.23Zm50.36-279.36c-.52,4.23-1.64,8.38-2.24,13.21-17.71,98.93-84.5,123.79-123.74,118.96-31.99-3.95-106.57-25.39-93.65-150.04l.52-4.23c15.33-124.35,126.47-111.27,126.47-111.27,74.25,9.15,101.49,61.53,92.64,133.36Zm-66.39-3.28c6.55-53.12-28.77-59.93-35.41-60.74l-1.21-.15s-41.57-.83-47.81,49.87l-.15,1.2c-6.62,53.73,8.81,77.69,34.76,80.89,2.42,.3,40.59,3.78,49.81-71.07Z"/>
      <path class="cls-8" d="M11313.69,4352.03c-.6,4.83-3.53,8.76-10.01,11.63-22.39,7.66-46.6,15.09-77.97,21.03-3.16,.84-6.18,.46-9.2,.09-12.68-1.56-18.14-12.04-21.92-21.08l-64.69-151.37c-.46-1.28-2.2-2.1-3.4-2.25-2.42-.3-5.05,1.21-5.35,3.63-2.96,33.95-6.84,105.17-9.57,137.31l-.15,1.21c-1.19,9.66-9.41,16.62-18.6,16.71-13.51,.17-26.25-.79-38.33-2.28-17.51-2.15-32.37-5.83-42.48-8.3-8.99-1.72-15.26-10.46-14.07-20.11,7.83-93.42,33.77-318.79,40.24-371.31,.82-6.63,6.32-11.48,12.5-11.95,16.6-.4,31.16,.78,43.84,2.34,18.71,2.31,32.37,5.83,41.27,8.15,6.5,2.03,10.65,8.06,9.83,14.69l-18.12,117.27c-.3,2.42,1.36,3.84,3.17,4.07,.61,.08,1.89-.39,2.56-.91l136.35-111.88c4.07-3.18,7.84-3.93,12.06-3.42,3.62,.45,6.57,1.42,9.29,4.21,24.71,23.27,38.33,47.01,45.22,60.73,1.51,2.63,1.74,5.73,1.37,8.75-.59,4.83-3,9.43-7,12.01-30.52,18.91-99.02,57.65-126.08,73.32-3.92,1.97-6.17,5.37-6.69,9.59-.3,2.42,.53,5.58,2.05,8.23l106.81,167.59c3.56,5.95,8.02,14.47,7.06,22.32Z"/>
    </g>
    <g>
      <path class="cls-11" d="M10133.19,1350.6c6.21,22.27,10.79,50.03,5.7,74.81-2.24,10.09-17.34,57.87-97.02,80.08-99.59,27.76-136.35-88.28-141.58-107.03l-25.15-90.22c-1.46-5.28-6.72-8.24-11.99-6.77l-18.16,5.06c-9.38,2.62-19.86-3.31-22.47-12.68l-13.89-49.79c-2.61-9.38,3.3-19.86,12.68-22.47l17.74-4.31c5.85-1.64,8.82-6.88,7.18-12.74l-13.06-46.87c-1.96-7.04,1.09-14.2,7.2-17.16l1.18-.33c9.64-3.94,20.01-7.47,30.55-10.4,15.82-4.41,31.38-7.48,40.33-9.35,0,0,.59-.16,1.34,.27,6.61-1.22,13.09,3.93,14.88,10.37l13.55,48.63c1.47,5.27,6.72,8.23,12.14,7.35l70.48-19.01c9.38-2.61,19.86,3.3,22.48,12.68l11.92,42.76c2.61,9.38-1.67,25.73-11.05,28.34l-70.63,18.42c-5.27,1.47-8.23,6.72-6.75,11.99l13.22,47.45c16.82,60.34,33.77,87.19,57.21,80.65,15.81-4.4,13.59-21.46,8.52-39.62-1.96-7.04-4.5-13.9-6.29-20.34l-1.31-4.69c-2.29-8.2,1.6-16.87,9.65-19.74,6.86-2.55,16.65-5.9,28.38-9.17,8.2-2.28,16.4-4.57,24.93-5.69,7.95-.95,15.44,3.28,17.98,10.15,2.71,7.45,6.82,17.67,10.09,29.39Z"/>
      <path class="cls-11" d="M10452.26,1158.75c1.63,5.86,3.42,12.3,4.63,18.91,33.86,150.94-46.33,225.69-104.92,242.02-47.45,13.22-165.57,26.58-221.28-157.42l-1.64-5.86c-51.76-185.72,113.12-232.93,113.12-232.93,111.9-31.19,180.2,28.07,210.08,135.28Zm-96.06,33.72c-21.71-77.93-74.42-67.65-84.96-64.72l-2.34,.65s-59.89,23-38.17,100.92c22.21,79.68,58.56,103.64,96.64,93.03,4.69-1.31,59.7-19.16,28.83-129.89Z"/>
      <path class="cls-11" d="M10884.55,1266.82c-31.14,10.58-190.86,58.25-274.06,81.43l-29.87,8.33c-10.54,2.93-21.03-2.98-23.81-12.94,0,0-54.84-162.77-87.82-281.12-7.51-26.94-13.79-51.71-17.99-71.38-2.94-10.54,2.39-20.87,12.77-24.39,14.48-4.66,41.27-12.76,67.46-20.7l1.18-.32c11.71-3.26,22.11,4.57,25.38,16.28,0,0,61.83,230.9,61.99,231.48l7.9,30.63,.33,1.18c2.11,7.61,10.18,11.67,17.8,9.55,0,0,73.14-18.49,135.83-35.96,31.05-8.65,60.18-17.41,76.26-23.16,8.2-2.28,17.19,2.79,20.07,10.82l17.14,61.52c2.29,8.2-2.94,16.6-10.56,18.73Zm-60.86-277.25c1.14,4.09,1.71,8.36,3.01,13.04,21.66,98.15-30.44,146.76-68.53,157.37-31.05,8.65-108.13,17.51-144.12-102.53l-1.14-4.09c-33.64-120.7,74-151.33,74-151.33,72.06-20.08,117.34,17.8,136.77,87.53Zm-62.55,22.48c-14.36-51.56-49.59-44.27-56.03-42.47l-1.16,.33s-38.71,15.2-24.98,64.41l.33,1.18c14.53,52.14,37.98,68.33,63.17,61.32,2.35-.65,38.93-12.11,18.68-84.76Z"/>
      <path class="cls-11" d="M11029.99,1231.35c-19.75,6.13-39.09,11.52-56.08,16.25-9.95,2.78-19.86-3.3-22.63-13.26,0,0-55.23-166.44-88.37-285.37-7.19-25.78-13.55-48.63-17.61-67.71-2.78-9.96,2.39-20.87,11.76-23.48,13.73-5.09,39.94-13.02,64.38-20.46,11.71-3.26,21.95,3.98,25.38,16.28,0,0,61.99,231.48,62.15,232.07l33.22,121.45c2.94,10.55-2.22,21.46-12.19,24.24Z"/>
    </g>
  </g>
</svg>