<?xml version="1.0" encoding="UTF-8"?>
<svg id="Layer_2" data-name="Layer 2" xmlns="http://www.w3.org/2000/svg" xmlns:xlink="http://www.w3.org/1999/xlink" viewBox="0 0 1974.4 1509.63">
  <defs>
    <style>
      .cls-1, .cls-2 {
        fill: none;
      }

      .cls-1, .cls-2, .cls-3, .cls-4, .cls-5, .cls-6, .cls-7 {
        stroke: #49271a;
      }

      .cls-1, .cls-3, .cls-6 {
        stroke-linecap: round;
        stroke-linejoin: round;
      }

      .cls-1, .cls-7 {
        stroke-width: 12px;
      }

      .cls-8 {
        clip-path: url(#clippath);
      }

      .cls-2, .cls-4, .cls-5, .cls-7 {
        stroke-miterlimit: 10;
      }

      .cls-2, .cls-5, .cls-6 {
        stroke-width: 15px;
      }

      .cls-9 {
        fill: #f29c9b;
      }

      .cls-10, .cls-3, .cls-4 {
        fill: #e56c79;
      }

      .cls-11 {
        fill: #e3d3c6;
      }

      .cls-12, .cls-5, .cls-6 {
        fill: #fff;
      }

      .cls-13 {
        fill: #fbcbb9;
      }

      .cls-14 {
        fill: #49271a;
      }

      .cls-15 {
        fill: #49271c;
      }

      .cls-16 {
        fill: #48251c;
      }

      .cls-3 {
        stroke-width: 13px;
      }

      .cls-4 {
        stroke-width: 16px;
      }

      .cls-7 {
        fill: #f5a9a3;
      }
    </style>
    <clipPath id="clippath">
      <path class="cls-5" d="M1111.37,700.97c0,54.53-29.38,104.57-78.37,143.74-63.85,51.07-160.99,83.67-269.8,83.67-10.24,0-29.06,12.65-39.07,12.08-35.39,7.35-63.63-1.69-101.6-1.69-261.62,0-473.71-184.66-473.71-412.45S360.9,113.87,622.52,113.87s473.7,184.66,473.7,412.45c0,30.29-8.32,73.88-10.86,88.26s16.37,30.53,20.74,46.79c3.46,12.86,5.27,26.09,5.27,39.6Z"/>
    </clipPath>
  </defs>
  <g id="Layer_2-2" data-name="Layer 2">
    <ellipse class="cls-11" cx="645.52" cy="1429.96" rx="328.39" ry="79.66"/>
    <path class="cls-4" d="M1171.08,887.12c-22.42-9.44-145.38,4.56-256.48,19.3,3.24-1.26,6.44-2.52,9.61-3.78,31.26-10.67,59.72-24.35,84.5-40.46,11.7-7.06,20.89-13.72,26.96-19.66,47.38-38.84,75.69-88.03,75.69-141.55,0-13.51-1.81-26.74-5.27-39.6-4.37-16.26-23.29-32.41-20.74-46.79s10.86-57.97,10.86-88.26c0-98.76-39.87-189.4-106.35-260.41,19.37-15.73,31.62-38.96,31.62-64.89,0-47.37-40.91-85.77-91.38-85.77-36.12,0-67.34,19.67-82.18,48.22-67.03-31.64-143.81-49.6-225.41-49.6-107.4,0-206.44,31.12-285.9,83.57-16.54-28.97-47.73-48.51-83.48-48.51-53.05,0-96.06,43.01-96.06,96.06,0,36.11,19.93,67.56,49.39,83.97-29.68,47.33-49.01,100.28-55.36,156.55-.76-.79-1.52-1.57-2.3-2.33-19.5-19.24-43.49-29.24-72.8-21.03-8.54,2.39-17.53,6.33-27,12.04-12.44,7.5-21.82,18.37-28.45,31.53-11.9,23.61-14.93,54.6-10.85,86.76,2.61,20.58,8.13,41.63,16.12,61.54,6.27,15.67,14.08,30.64,23.18,44.1,2.25,3.33,4.62,6.79,7.09,10.35,7.18,10.32,15.27,21.45,24.15,32.71,12.33,15.64,26.19,31.52,41.28,45.81,11.19,10.62,23.06,20.35,35.49,28.46,21.7,14.16,45.09,23.37,69.51,23.62,5.89,.06,11.85-.41,17.85-1.44,1.13,5.36,2.43,10.88,3.93,16.61,21.13,80.66,67.88,116.25,67.88,116.25,0,0-38.41,161.82-24.01,235.27,14.4,73.45,56.05,110.95,56.05,110.95,0,0,4.64,41.06,9.27,49,1.84,3.15,5.87,12.98,14.45,23.07-2.21,3.09-3.57,6.44-3.9,10-1.9,20.47,30.18,40.19,71.65,44.04,41.47,3.85,76.63-9.63,78.53-30.1,.79-8.51-4.3-16.88-13.48-24.04,11.45-14.6,9.02-29.6,9.02-29.6,0,0,82.11,15.23,129.13,12.58,47.02-2.65,128.33-22.61,128.33-22.61,0,0,9.03,22.75,28.03,40.34-1.95,2.91-3.15,6.05-3.46,9.38-1.9,20.47,30.18,40.19,71.65,44.04,41.47,3.85,76.63-9.63,78.53-30.1,1.01-10.85-7.53-21.49-21.95-29.66,3.15-3.85,5.99-8.09,8.68-12.71,14.59-25.01,18.84-68.2,18.84-68.2,0,0,36.89-62.74,38.1-136.29,1.21-73.55-29.5-149.56-29.5-149.56,0,0,78.4,8.93,116.11,4.47,37.71-4.47,74.93-19.85,87.33-52.6,12.41-32.75-8.35-45.75-8.35-45.75,0,0,31.17,2.58,36.52-14.61,5.34-17.19-20.69-20.69-20.69-20.69Zm-744.18,14.94c-7.59-1.75-15.04-3.59-22.31-5.51-.29-1.4-.59-2.85-.91-4.35,7.62,3.46,15.36,6.75,23.22,9.86Z"/>
    <ellipse class="cls-15" cx="930.11" cy="201.02" rx="91.38" ry="85.77"/>
    <ellipse class="cls-16" cx="870.92" cy="1405.75" rx="37.23" ry="75.41" transform="translate(-609.31 2143.02) rotate(-84.7)"/>
    <ellipse class="cls-16" cx="443.16" cy="1405.75" rx="37.23" ry="75.41" transform="translate(-997.53 1717.1) rotate(-84.7)"/>
    <g>
      <path class="cls-12" d="M1111.37,700.97c0,54.53-29.38,104.57-78.37,143.74-63.85,51.07-160.99,83.67-269.8,83.67-10.24,0-29.06,12.65-39.07,12.08-35.39,7.35-63.63-1.69-101.6-1.69-261.62,0-473.71-184.66-473.71-412.45S360.9,113.87,622.52,113.87s473.7,184.66,473.7,412.45c0,30.29-8.32,73.88-10.86,88.26s16.37,30.53,20.74,46.79c3.46,12.86,5.27,26.09,5.27,39.6Z"/>
      <g class="cls-8">
        <path class="cls-13" d="M1111.37,700.97c0,54.53-29.38,104.57-78.37,143.74-36.44-14.12-62.36-50.33-62.36-92.78,0-54.74,43.11-99.12,96.29-99.12,13.95,0,27.21,3.06,39.18,8.56,3.46,12.86,5.27,26.09,5.27,39.6Z"/>
      </g>
      <path class="cls-2" d="M1111.37,700.97c0,54.53-29.38,104.57-78.37,143.74-63.85,51.07-160.99,83.67-269.8,83.67-10.24,0-29.06,12.65-39.07,12.08-35.39,7.35-63.63-1.69-101.6-1.69-261.62,0-473.71-184.66-473.71-412.45S360.9,113.87,622.52,113.87s473.7,184.66,473.7,412.45c0,30.29-8.32,73.88-10.86,88.26s16.37,30.53,20.74,46.79c3.46,12.86,5.27,26.09,5.27,39.6Z"/>
    </g>
    <circle class="cls-13" cx="490.17" cy="787.44" r="99.12"/>
    <ellipse class="cls-14" cx="937.15" cy="606.95" rx="44.4" ry="40.51"/>
    <ellipse class="cls-14" cx="562.73" cy="627.81" rx="44.4" ry="40.51"/>
    <rect class="cls-14" x="879.43" y="519.25" width="60.7" height="19.5" rx="9.75" ry="9.75" transform="translate(-141.5 577.49) rotate(-32.82)"/>
    <path class="cls-5" d="M306.44,805.31c-27.26,24.34-54.15,34.03-79.9,33.76-24.42-.25-47.81-9.46-69.51-23.62-12.43-8.11-24.3-17.84-35.49-28.46-15.09-14.29-28.95-30.17-41.28-45.81-8.88-11.26-16.97-22.39-24.15-32.71-2.47-3.56-4.84-7.02-7.09-10.35-9.1-13.46-16.91-28.43-23.18-44.1-7.99-19.91-13.51-40.96-16.12-61.54-4.08-32.16-1.05-63.15,10.85-86.76,6.63-13.16,16.01-24.03,28.45-31.53,9.47-5.71,18.46-9.65,27-12.04,29.31-8.21,53.3,1.79,72.8,21.03,11.02,10.86,20.61,24.67,28.91,39.82,1.52,2.78,3.01,5.49,4.48,8.14,12.12,21.94,22.35,39.68,31.01,53.88,9.05,14.85,16.39,25.83,22.4,33.68,.06,.08,.13,.16,.2,.25,4.46,5.44,25.57,20.44,48.4,40.22,10.88,9.43,22.15,19.95,32.2,31.03,15.47,17.07,28.01,35.49,31.69,53.34,4.7,22.83-5.06,44.74-41.67,61.77Z"/>
    <path class="cls-9" d="M148.82,483.18L9.72,592.48c-4.08-32.16-1.05-63.15,10.85-86.76l55.45-43.57c29.31-8.21,53.3,1.79,72.8,21.03Z"/>
    <path class="cls-9" d="M213.22,585.02l-157.11,123.45c-2.47-3.56-4.84-7.02-7.09-10.35-9.1-13.46-16.91-28.43-23.18-44.1l156.37-122.88c12.12,21.94,22.35,39.68,31.01,53.88Z"/>
    <path class="cls-9" d="M284.22,659.17l-162.68,127.82c-15.09-14.29-28.95-30.17-41.28-45.81l155.56-122.23c4.46,5.44,25.57,20.44,48.4,40.22Z"/>
    <path class="cls-9" d="M348.11,743.54l-121.57,95.53c-24.42-.25-47.81-9.46-69.51-23.62l159.39-125.25c15.47,17.07,28.01,35.49,31.69,53.34Z"/>
    <path class="cls-2" d="M306.44,805.31c-27.26,24.34-54.15,34.03-79.9,33.76-24.42-.25-47.81-9.46-69.51-23.62-12.43-8.11-24.3-17.84-35.49-28.46-15.09-14.29-28.95-30.17-41.28-45.81-8.88-11.26-16.97-22.39-24.15-32.71-2.47-3.56-4.84-7.02-7.09-10.35-9.1-13.46-16.91-28.43-23.18-44.1-7.99-19.91-13.51-40.96-16.12-61.54-4.08-32.16-1.05-63.15,10.85-86.76,6.63-13.16,16.01-24.03,28.45-31.53,9.47-5.71,18.46-9.65,27-12.04,29.31-8.21,53.3,1.79,72.8,21.03,11.02,10.86,20.61,24.67,28.91,39.82,1.52,2.78,3.01,5.49,4.48,8.14,12.12,21.94,22.35,39.68,31.01,53.88,9.05,14.85,16.39,25.83,22.4,33.68,.06,.08,.13,.16,.2,.25,4.46,5.44,25.57,20.44,48.4,40.22,10.88,9.43,22.15,19.95,32.2,31.03,15.47,17.07,28.01,35.49,31.69,53.34,4.7,22.83-5.06,44.74-41.67,61.77Z"/>
    <rect class="cls-14" x="558.94" y="525.16" width="60.7" height="19.5" rx="9.75" ry="9.75" transform="translate(1008.95 1211.14) rotate(-164.05)"/>
    <path class="cls-7" d="M795.75,696.36c0,38.88-2.16,70.39-40.03,70.39s-40.04-31.51-40.04-70.39c0-15,2.67-28.9,7.22-40.32,11.07,1.15,29.03-2.85,36.8-16.03,9.86,9.75,21.86,14.47,29.33,17.3,4.25,11.17,6.72,24.6,6.72,39.05Z"/>
    <path class="cls-1" d="M710.37,636.45c-1.89,26.16,37.62,22,49.33,4.55,16.81,19.88,59.58,14.91,38.71-14.04"/>
    <path class="cls-15" d="M361.06,246.79c-7.55,58.23-46.82,97.5-106.12,106.12-58,8.43-106.12-47.51-106.12-106.12s47.51-106.12,106.12-106.12,113.66,48,106.12,106.12Z"/>
    <path class="cls-6" d="M409.13,922.42s238.85,18.53,326.2,8.52c62.31-7.14,397.25-60.02,435.75-43.82,0,0,26.04,3.5,20.69,20.69s-36.52,14.61-36.52,14.61c0,0,20.75,13,8.35,45.75s-49.62,48.13-87.33,52.6-116.11-4.47-116.11-4.47c0,0,30.71,76.01,29.5,149.56s-38.1,136.29-38.1,136.29c0,0-4.24,43.18-18.84,68.2s-33.28,39.16-85.39,39.16-76.09-60.45-76.09-60.45c0,0-81.32,19.96-128.33,22.61s-129.13-12.58-129.13-12.58c0,0,7.28,45.03-62.91,54.96s-88.73-40.39-93.37-48.34-9.27-49-9.27-49c0,0-41.65-37.51-56.05-110.95s24.01-235.27,24.01-235.27c0,0-46.76-35.58-67.88-116.25s-5.1-123.82,30.43-133.42,71.06,16.35,96.99,79.71,33.4,121.89,33.4,121.89Z"/>
    <path class="cls-16" d="M757.38,953.2c24.87,45.77,20.53,81.82,0,90.54-20.54,8.72-49.25,8.03-72.8-32.67,0,0-35.47,64.97-79.34,37.15-43.86-27.81-4.66-78.22-4.66-78.22,0,0-132.37-22.55-190.84-39.12-1.1-8.77-3.74-24.27-5.51-34.42,69.03,18.31,153.26,29.06,244.16,29.06,172.88,0,321.6-38.88,387.58-94.64,3.06-1.81,5.58-3.52,7.51-5.11,10.79,26.05-142.38,97.73-286.1,127.43Z"/>
    <path class="cls-3" d="M101,765.86s2.49-190.75,11.27-196.9,133.01,58.45,133.01,58.45l-44.32-58.45s-92.2-64.1-122.06-52.69c-29.86,11.42-20.06,196.11-20.06,196.11l42.16,53.48Z"/>
    <g>
      <path class="cls-9" d="M1207.89,97.58l34.19,121.77c.77,2.61-.33,5.55-3.02,6.78-3.04,1.55-6.39,2.76-9.4,3.65-5.02,1.48-9.62,2.18-12.95,2.73-2.73,.37-5.39-1.25-6.22-4.06l-8.89-26.41c-.85-2.15-2.93-3.28-5.14-2.63l-20.62,6.3c-2.21,.65-3.54,2.79-2.89,5l6.96,26.54c.83,2.81-.73,5.67-3.42,6.9-3.5,1.47-7.11,2.54-10.32,3.48-4.22,1.24-8.29,2.23-11.16,2.86-2.93,.43-5.85-1.33-6.88-4.08l-36.52-121.52c-.95-3.21,1.03-6.85,4.19-8,2.95-1.09,6.17-2.04,9.18-2.93,4.82-1.42,9.5-2.58,12.97-3.39,3.47-.81,7.11,1.18,8.12,4.59l.12,.4,15.38,58.77c.59,2.01,2.79,3.54,5,2.89l.4-.12,21.27-7.81c2.01-.59,3.08-2.87,2.69-4.94l-17.23-56.91c-1.07-3.61,.71-7.2,4.33-8.26,0,0,6.11-2.24,12.33-4.08,3.21-.95,6.43-1.9,8.95-2.21,3.61-1.07,7.52,1.06,8.58,4.67Z"/>
      <path class="cls-9" d="M1351.51,133.04c6.46,21.89,12.04,48.19,14.96,63.26,1.41,7.01-3.27,14.06-10.9,16.32l-32.53,9.6c-34.74,10.25-58.14-4.67-64.3-25.56-2.43-8.23-2.25-17.24,1.04-26.07,6.6-18.32,28.5-26.97,42.76-31.17,3.41-1.01,6.28-1.64,8.49-2.29,3.21-.95,3.62-3.25,3.14-6.38-.27-1.67-.55-3.33-1.02-4.94-2.13-7.23-7.22-13.37-17.9-11.09-.8,.24-1.67,.27-2.27,.45-9.84,2.9-14.43,11.03-14.91,19.03-.17,3.11-2.59,6-5.81,6.95-.6,.18-1.2,.36-1.87,.33l-14.69,1.28c-3.59,.41-7.03-1.64-7.98-4.85-.18-.6-.3-1-.27-1.67-1.27-37.61,24.76-47.04,36.61-50.53l3.21-.95c9.64-2.84,40.26-7.08,54.25,21.1,3.34,6.87,6.84,16.54,9.99,27.18Zm-25.74,37.07c-1.42-4.82-4.51-5.66-8.18-4.79-1.41,.41-3.07,.69-4.68,1.16-7.63,2.25-15.85,6.21-15.71,15.55,.1,1.06,.13,1.93,.37,2.73,2.25,7.63,13.95,6.58,22.99,3.91l3.01-.89c3.5-1.47,5.98-4.16,5.17-7.64l-2.96-10.04Z"/>
      <path class="cls-9" d="M1354.71,22.22c3.61-1.07,7.43-2.19,11.36-2.92,3.53-.61,7.05,.97,7.94,3.99l9.6,32.53c1.3,4.42,6.34,17.78,19.99,13.75l2.01-.59c12.7-5.06,9.43-19.81,8.07-24.43l-9.13-30.93c-.77-2.61,.99-5.53,3.94-6.62,3.15-1.15,7.71-2.71,12.73-4.19,3.21-.95,6.89-1.81,10.36-2.62,3.07-.69,6.07,.61,6.84,3.22,2.71,7.71,8.53,25.21,14.04,43.88,5.39,18.27,10.48,37.73,12.12,51.44,4.22,32.81-35.01,48.54-43.85,51.14-7.63,2.25-25.94,6.78-41.19,3.2-2.62-.75-4.16-2.26-4.81-4.47-.41-1.41-.43-2.93-.24-4.51l.93-15.34c.15-2.45,2.26-4.16,5.08-4.99,1.2-.36,2.73-.37,4.05-.32,4.49,.42,16.08,.49,24.78-1.85l1.41-.41c21.69-6.4,19.5-19.73,17.13-31.47l-.06-.2c-.24-.8-1.22-1.17-2.02-.93-.4,.12-.6,.18-.94,.5-3.16,3.34-10.13,9.32-21.58,12.7-1.61,.47-3.21,.95-5.08,1.28-24.49,5.04-41.95-9.01-48.65-31.7-4.62-15.66-9.03-29.86-11.42-37.23l-.12-.4c-.83-2.81,1.27-6.05,4.57-7.46,3.35-1.21,7.51-2.65,12.13-4.02Z"/>
      <path class="cls-9" d="M1592.13,61.52c.59,2.01,1.24,4.22,1.7,6.49,12.44,51.78-14.77,77.93-34.85,83.85-16.27,4.8-56.86,10.01-76.99-53.03l-.59-2.01c-18.79-63.66,37.73-80.77,37.73-80.77,38.36-11.32,62.17,8.72,73.02,45.47Zm-32.88,12.11c-7.88-26.71-25.97-22.9-29.58-21.83l-.8,.24s-20.49,8.23-12.61,34.94c8.06,27.31,20.7,35.37,33.75,31.52,1.61-.47,20.45-6.91,9.25-44.86Z"/>
    </g>
    <g>
      <path class="cls-10" d="M1305.28,703.59l-23.17,103.13c-.47,2.23-2.44,3.96-4.91,3.79-2.85-.06-5.8-.51-8.36-1.05-4.28-.9-7.94-2.21-10.61-3.13-2.15-.81-3.47-3.06-2.96-5.45l3.94-22.95c.23-1.92-.86-3.58-2.74-3.98l-17.67-3.55c-1.88-.4-3.71,.65-4.11,2.53l-5.41,22.29c-.51,2.4-2.79,3.88-5.26,3.72-3.15-.31-6.24-.96-8.98-1.53-3.6-.76-6.98-1.65-9.35-2.33-2.33-.85-3.78-3.3-3.44-5.73l21.36-103.87c.58-2.74,3.48-4.63,6.26-4.23,2.6,.37,5.34,.95,7.91,1.49,4.11,.87,8.01,1.87,10.89,2.65,2.88,.78,4.77,3.69,4.15,6.6l-.07,.34-12.01,49.33c-.36,1.71,.65,3.71,2.53,4.11l.34,.07,18.75,2.7c1.71,.36,3.41-.89,3.94-2.57l9.91-48.7c.65-3.08,3.38-5.01,6.46-4.36,0,0,5.38,.78,10.69,1.9,2.74,.58,5.48,1.15,7.46,1.93,3.08,.65,5.11,3.76,4.46,6.84Z"/>
      <path class="cls-10" d="M1396.85,786.66c-3.93,18.66-10.27,40.22-14.1,52.47-1.74,5.71-7.99,9.05-14.49,7.68l-27.74-5.85c-29.62-6.24-40.91-26.51-37.16-44.31,1.48-7.02,5.19-13.57,11.11-18.76,12.12-10.86,31.66-8.53,43.82-5.96,2.91,.61,5.27,1.29,7.16,1.69,2.74,.58,3.96-.95,4.84-3.45,.46-1.33,.92-2.67,1.21-4.04,1.3-6.16,0-12.7-8.77-15.26-.68-.14-1.33-.46-1.85-.57-8.39-1.77-14.99,2.38-18.51,8.08-1.36,2.22-4.29,3.39-7.03,2.81-.51-.11-1.03-.22-1.51-.5l-11.31-4.89c-2.8-1.13-4.52-3.99-3.95-6.73,.11-.51,.18-.86,.46-1.33,13.99-28.17,36.88-24.78,46.98-22.65l2.74,.58c8.22,1.73,32.42,10.77,31.54,37.05-.27,6.38-1.53,14.88-3.44,23.95Zm-33.64,17.05c.87-4.11-1.07-5.95-4.12-6.77-1.2-.25-2.53-.71-3.9-1-6.51-1.37-14.12-1.72-17.73,5.21-.35,.82-.67,1.47-.81,2.15-1.37,6.51,7.65,10.38,15.35,12l2.57,.54c3.15,.31,6.05-.69,6.83-3.57l1.8-8.56Z"/>
      <path class="cls-10" d="M1443.18,706.41c3.08,.65,6.34,1.34,9.52,2.36,2.84,.96,4.8,3.52,4.26,6.08l-5.85,27.74c-.79,3.77-2.39,15.59,9.25,18.05l1.71,.36c11.35,1.32,14.8-10.83,15.63-14.77l5.56-26.37c.47-2.23,2.92-3.68,5.53-3.31,2.78,.41,6.75,1.06,11.03,1.97,2.74,.58,5.79,1.4,8.66,2.18,2.53,.71,4.23,2.86,3.76,5.08-1.07,6.75-3.73,21.93-7.08,37.85-3.28,15.58-7.26,31.91-11.49,42.64-9.91,25.81-45.01,21.81-52.55,20.22-6.51-1.37-21.77-5.3-31.57-13.99-1.63-1.6-2.16-3.32-1.77-5.2,.25-1.2,.85-2.33,1.61-3.42l6.77-10.91c1.08-1.74,3.32-2.16,5.71-1.66,1.03,.22,2.15,.81,3.11,1.37,3.14,2.09,11.63,6.74,18.96,8.47l1.2,.25c18.49,3.9,22.17-6.77,25.09-16.35l.04-.17c.14-.68-.43-1.34-1.12-1.49-.34-.07-.51-.11-.89,0-3.65,1.2-11.15,2.84-20.91,.78-1.37-.29-2.74-.58-4.24-1.07-20.02-6.01-27.28-23.28-23.21-42.63,2.82-13.36,5.21-25.55,6.37-31.92l.07-.34c.51-2.4,3.34-3.95,6.32-3.68,2.95,.44,6.58,1.03,10.52,1.86Z"/>
      <path class="cls-10" d="M1602.23,829.52c-.36,1.71-.76,3.6-1.33,5.44-11.39,43.02-41.79,51.46-58.91,47.85-13.87-2.92-45.8-15.2-35.59-69.56l.36-1.71c11.44-54.28,59.8-44.44,59.8-44.44,32.7,6.89,42.27,31.09,35.67,62.42Zm-28.99-4.14c4.8-22.77-10.02-27.15-13.1-27.8l-.69-.14s-18.34-2.08-23.14,20.7,1.19,34.23,12.32,36.58c1.37,.29,17.78,3.03,24.6-29.33Z"/>
    </g>
    <g>
      <path class="cls-15" d="M1381.04,554.24c-5.06,1.05-10.44,1.83-15.85,2.3-8.12,.71-15.69,.77-20.22,.87-3.63,.02-6.91-2.73-7.22-6.33l-6.96-79.07c-6.03-68.55-19.31-67.98-27.73-67.24-8.42,.74-26.48,8.99-23.79,53.29,1.82,31.05,4.77,78.35,6.06,96.42,.07,4.24-2.92,8.13-7.08,9.11-4.18,.67-8.36,1.34-12.87,1.74-6.61,.58-12.95,.84-17.79,.96-4.23,.07-8.13-2.92-8.83-7.4-6.12-38.55-11.93-97.72-15.61-139.51-1.75-19.84-2.85-35.8-3.59-44.22-.32-3.61,2.1-7.15,5.98-7.8,7.44-1.56,15.83-2.6,23.34-3.27,5.41-.48,10.55-.63,13.88-.62,3.94-.04,6.93,3.03,7.25,6.63l.05,.6,.09,7.87c.08,.9,.73,1.45,1.33,1.4s1.18-.41,1.45-.73c5.73-7.17,19.81-19.32,39.05-21.01,53.21-4.68,63.92,61.94,66.01,85.69,.45,5.11,.41,8.14,.41,8.14l8.33,94.7c.32,3.61-2.12,6.85-5.71,7.47Z"/>
      <path class="cls-15" d="M1547.94,429.89c2.88,32.77,3.26,71.52,3.09,93.65,0,10.3-8.63,18.94-20.06,19.94l-48.7,4.28c-52.01,4.58-80.81-23.19-83.56-54.45-1.08-12.33,1.74-25,8.91-36.53,14.55-24,47.96-29.97,69.3-31.85,5.11-.45,9.35-.52,12.65-.81,4.81-.42,6.05-3.56,6.25-8.12,.09-2.43,.18-4.86-.03-7.27-.95-10.82-6.39-20.95-22.13-20.78-1.2,.11-2.43-.09-3.33,0-14.73,1.3-23.53,11.46-26.49,22.63-1.13,4.34-5.38,7.74-10.19,8.17-.9,.08-1.8,.16-2.73-.06l-21.11-2.38c-5.19-.45-9.47-4.32-9.89-9.13-.08-.9-.13-1.5,.09-2.43,8.93-53.5,48.4-59.4,66.14-60.96l4.81-.42c14.43-1.27,58.91,1.48,70.64,45.29,2.76,10.66,4.95,25.32,6.36,41.25Zm-46.94,45.03c-.63-7.22-4.75-9.28-10.19-9.1-2.11,.19-4.54,.1-6.94,.31-11.42,1-24.17,4.25-26.64,17.49-.17,1.53-.36,2.76-.26,3.96,1,11.42,17.83,13.28,31.36,12.09l4.51-.4c5.36-1.08,9.63-4.18,9.48-9.32l-1.32-15.03Z"/>
      <path class="cls-15" d="M1740.58,501.71c.21,2.41-.81,4.62-3.65,6.68-10.07,6.04-21.05,12.15-35.66,18.29-1.45,.73-2.95,.87-4.46,1-6.31,.56-10.04-3.96-12.82-7.96l-47.08-66.75c-.35-.58-1.28-.8-1.88-.74-1.2,.11-2.33,1.11-2.22,2.32,2.08,16.78,7.58,51.75,9.58,67.63l.05,.6c.42,4.81-2.84,9.04-7.3,10.03-6.53,1.48-12.82,2.34-18.83,2.87-8.72,.77-16.31,.53-21.48,.37-4.54,.1-8.49-3.5-8.91-8.31-5.88-46.14-16.64-158.2-18.94-184.36-.29-3.31,1.88-6.22,4.83-7.09,8.01-1.92,15.2-2.85,21.51-3.41,9.32-.82,16.31-.53,20.88-.32,3.36,.31,6,2.8,6.29,6.11l3.35,58.78c.11,1.2,1.06,1.72,1.96,1.64,.3-.03,.88-.38,1.15-.71l54.57-68.42c1.65-1.96,3.4-2.72,5.5-2.91,1.8-.16,3.33,0,4.94,1.08,14.4,8.73,23.47,18.84,28.24,24.78,1.01,1.12,1.44,2.6,1.57,4.1,.21,2.4-.48,4.89-2.15,6.55-12.85,12.34-42.08,38.24-53.59,48.64-1.7,1.36-2.44,3.24-2.26,5.35,.11,1.2,.84,2.65,1.85,3.78l69.2,70.26c2.34,2.52,5.39,6.19,5.74,10.1Z"/>
      <path class="cls-15" d="M1888.87,399.9c2.88,32.77,3.26,71.52,3.09,93.65,0,10.3-8.63,18.94-20.06,19.94l-48.7,4.28c-52.01,4.58-80.81-23.19-83.56-54.45-1.08-12.33,1.74-25,8.91-36.53,14.55-24,47.96-29.97,69.3-31.85,5.11-.45,9.35-.52,12.65-.81,4.81-.42,6.05-3.56,6.25-8.12,.09-2.43,.18-4.86-.03-7.27-.95-10.82-6.39-20.95-22.13-20.78-1.2,.11-2.43-.09-3.33,0-14.73,1.3-23.53,11.46-26.49,22.63-1.13,4.34-5.38,7.74-10.19,8.17-.9,.08-1.8,.16-2.73-.06l-21.11-2.38c-5.19-.45-9.47-4.32-9.89-9.13-.08-.9-.13-1.5,.09-2.43,8.93-53.5,48.4-59.4,66.14-60.96l4.81-.42c14.43-1.27,58.91,1.48,70.64,45.29,2.76,10.66,4.95,25.32,6.36,41.25Zm-46.94,45.03c-.63-7.22-4.75-9.28-10.19-9.1-2.11,.19-4.54,.1-6.94,.31-11.42,1-24.17,4.25-26.64,17.49-.17,1.53-.36,2.76-.26,3.96,1,11.42,17.83,13.28,31.36,12.09l4.51-.4c5.36-1.08,9.63-4.18,9.48-9.32l-1.32-15.03Z"/>
      <path class="cls-15" d="M1966.21,504.28c-10.19,1.2-20.12,2.07-28.83,2.84-5.11,.45-9.39-3.42-9.84-8.53,0,0-11.82-86.22-17.19-147.25-1.16-13.23-2.2-24.95-2.44-34.63-.45-5.11,3.06-9.96,7.87-10.39,7.16-1.24,20.66-2.73,33.27-4.14,6.01-.53,10.34,3.94,10.9,10.25,0,0,9.22,118.56,9.24,118.86l5.17,62.26c.48,5.41-3.04,10.27-8.15,10.72Z"/>
    </g>
    <g>
      <path class="cls-9" d="M1620.61,657.92c-1.9,15.4-6.37,22.21-12.97,27.54-6.61,5.34-21.02,4.47-29.36,3.44-1.39-.17-2.57-.42-3.56-.54-1.38-.27-2.24-1.49-2.08-2.78l1.47-8.69c.25-1.18,1.46-2.04,2.85-1.87,1.99,.25,3.96,.59,8.63,1.16l.5,.06c13.41,1.65,17.28-6.84,18.18-11.68l.02-.2c.09-.7-.34-1.35-1.03-1.44-.2-.02-.41,.05-.62,.12-2.54,1-7.69,1.07-11.47,.6-1.09-.13-1.97-.35-2.76-.54-10.08-2.45-16.14-9.75-14.66-22.58l.05-.4c1.54-12.52,12.43-18.23,21.87-17.07,6.55,.81,10.06,3.46,11.58,5.06,.09,.11,.19,.12,.39,.15,.3,.04,.72-.11,.77-.51l.06-.5c.15-1.19,1.26-2.06,2.57-2,1.3,.06,2.6,.22,3.89,.38,2.08,.26,3.96,.59,5.34,.86,1.18,.25,2.06,1.26,2.02,2.47-.02,2.62-.32,8.33-.99,21.15-.14,2.81-.36,5.4-.66,7.79Zm-13.95-14.43c.13-1.09,.08-2.31-.32-3.17-1.1-2.56-3.96-5.53-8.33-6.07-.79-.1-1.7-.11-2.72-.03-4.6,.54-7.19,3.55-7.6,6.83-.44,3.58,1.79,7.58,6.87,8.91,.78,.2,1.46,.38,2.16,.47,3.68,.45,6.17-.95,7.74-2.27,1.13-.97,1.96-2.78,2.19-4.67Z"/>
      <path class="cls-9" d="M1682.25,664.21c-.12,.99-.26,2.09-.49,3.17-4.4,25.07-21.31,31.36-31.24,30.13-8.04-.99-26.84-6.43-23.67-37.91l.12-.99c3.88-31.49,31.92-28.23,31.92-28.23,18.97,2.34,25.6,15.66,23.36,33.84Zm-16.72-.95c1.63-13.21-7.03-14.98-8.82-15.2l-.4-.05s-10.55-.29-12.18,12.92c-1.66,13.51,2.34,19.45,8.8,20.24,.79,.1,10.28,.86,12.59-17.91Z"/>
      <path class="cls-9" d="M1738.36,685.95c-.67,5.46-3.58,12.67-11.81,16.5-6.52,3.03-20.04,2.27-30.87,.93-1.89-.23-3.56-.54-5.25-.75-2.97-.47-5.04-3.24-4.68-6.22l2.13-17.28c1.03-8.34,3.68-28.19,5.4-40.58,.27-2.18,2.18-3.76,4.39-3.69,2.89,.26,5.88,.52,8.77,.88,16.99,2.09,33.01,7.09,31.84,19.05l-.04,.3c-1.26,10.23-10.68,12.2-14.25,12.56l-.11,.09c-.01,.1,.07,.21,.17,.22,9.67,2.5,12.88,8.44,14.11,12.33,.35,1.25,.5,3.29,.21,5.67Zm-31.53,1.36c5.06,.62,12.59,.14,13.35-6.02l.04-.3c.39-4.79-5.31-7.61-10.48-8.25l-.7-.09c-1.4-.07-4.22-.12-4.44,1.67l-1.17,10.34c-.17,1.39,1.12,2.36,2.41,2.52l.99,.12Zm-.9-25.42c-.06,.5,.51,.77,1.01,.83,3.49,.33,10.81-.99,11.37-5.56l.04-.3c.14-3.61-3.96-4.72-7.33-5.14-1.29-.16-2.38-.29-3.19-.29-.5-.06-.93,.19-.99,.68l-.9,9.77Z"/>
      <path class="cls-9" d="M1797.51,714.92c-5.4-.36-32.68-3.22-46.78-4.96l-5.07-.62c-1.79-.22-3.01-1.78-2.8-3.47,0,0,1.96-28.2,4.43-48.26,.56-4.57,1.18-8.73,1.78-11.98,.22-1.79,1.68-3.02,3.48-2.9,2.5,.21,7.08,.67,11.56,1.12l.2,.02c1.99,.24,3.07,2.09,2.83,4.08,0,0-5.21,38.99-5.22,39.09l-.74,5.15-.02,.2c-.16,1.29,.81,2.42,2.1,2.58,0,0,12.28,1.82,22.91,3.12,5.26,.65,10.24,1.16,13.05,1.31,1.39,.17,2.43,1.51,2.36,2.91l-1.29,10.43c-.17,1.39-1.5,2.34-2.79,2.18Zm8.29-45.97c-.09,.7-.27,1.38-.37,2.17-2.92,16.28-13.91,20.37-20.36,19.58-5.26-.65-17.54-4.18-15.41-24.69l.08-.7c2.52-20.46,20.81-18.31,20.81-18.31,12.22,1.51,16.7,10.12,15.25,21.95Zm-10.92-.54c1.08-8.74-4.73-9.86-5.83-10l-.2-.03s-6.84-.14-7.87,8.21l-.02,.2c-1.09,8.84,1.45,12.78,5.72,13.31,.4,.05,6.68,.62,8.2-11.7Z"/>
      <path class="cls-9" d="M1861.5,716.15c-.1,.79-.58,1.44-1.65,1.91-3.68,1.26-7.67,2.48-12.83,3.46-.52,.14-1.02,.08-1.51,.01-2.09-.26-2.98-1.98-3.61-3.47l-10.64-24.91c-.08-.21-.36-.35-.56-.37-.4-.05-.83,.2-.88,.6-.49,5.59-1.12,17.31-1.57,22.6l-.02,.2c-.2,1.59-1.55,2.73-3.06,2.75-2.22,.03-4.32-.13-6.31-.38-2.88-.35-5.33-.96-6.99-1.37-1.48-.28-2.51-1.72-2.32-3.31,1.29-15.37,5.56-52.46,6.62-61.1,.13-1.09,1.04-1.89,2.06-1.97,2.73-.07,5.13,.13,7.21,.39,3.08,.38,5.33,.96,6.79,1.34,1.07,.33,1.75,1.33,1.62,2.42l-2.98,19.3c-.05,.4,.22,.63,.52,.67,.1,.01,.31-.06,.42-.15l22.44-18.41c.67-.52,1.29-.65,1.99-.56,.6,.07,1.08,.23,1.53,.69,4.07,3.83,6.31,7.74,7.44,9.99,.25,.43,.29,.94,.23,1.44-.1,.79-.49,1.55-1.15,1.98-5.02,3.11-16.29,9.49-20.75,12.06-.64,.32-1.02,.88-1.1,1.58-.05,.4,.09,.92,.34,1.35l17.58,27.58c.59,.98,1.32,2.38,1.16,3.67Z"/>
    </g>
    <g>
      <path class="cls-13" d="M1667.24,222.25c1.02,3.66,1.78,8.23,.94,12.31-.37,1.66-2.85,9.52-15.96,13.18-16.39,4.57-22.44-14.53-23.3-17.61l-4.14-14.85c-.24-.87-1.11-1.36-1.97-1.11l-2.99,.83c-1.54,.43-3.27-.54-3.7-2.09l-2.29-8.19c-.43-1.54,.54-3.27,2.09-3.7l2.92-.71c.96-.27,1.45-1.13,1.18-2.1l-2.15-7.71c-.32-1.16,.18-2.34,1.19-2.82l.19-.05c1.59-.65,3.29-1.23,5.03-1.71,2.6-.73,5.16-1.23,6.64-1.54,0,0,.1-.03,.22,.04,1.09-.2,2.15,.65,2.45,1.71l2.23,8c.24,.87,1.11,1.35,2,1.21l11.6-3.13c1.54-.43,3.27,.54,3.7,2.09l1.96,7.04c.43,1.54-.28,4.23-1.82,4.66l-11.62,3.03c-.87,.24-1.35,1.11-1.11,1.97l2.18,7.81c2.77,9.93,5.56,14.35,9.41,13.27,2.6-.72,2.24-3.53,1.4-6.52-.32-1.16-.74-2.29-1.04-3.35l-.21-.77c-.38-1.35,.26-2.78,1.59-3.25,1.13-.42,2.74-.97,4.67-1.51,1.35-.38,2.7-.75,4.1-.94,1.31-.16,2.54,.54,2.96,1.67,.45,1.23,1.12,2.91,1.66,4.84Z"/>
      <path class="cls-13" d="M1719.74,190.68c.27,.96,.56,2.02,.76,3.11,5.57,24.84-7.62,37.14-17.27,39.83-7.81,2.18-27.25,4.37-36.41-25.9l-.27-.96c-8.52-30.56,18.62-38.33,18.62-38.33,18.41-5.13,29.65,4.62,34.57,22.26Zm-15.81,5.55c-3.57-12.82-12.25-11.13-13.98-10.65l-.38,.11s-9.86,3.79-6.28,16.61c3.65,13.11,9.64,17.05,15.9,15.31,.77-.21,9.82-3.15,4.74-21.37Z"/>
      <path class="cls-13" d="M1790.88,208.46c-5.12,1.74-31.41,9.59-45.1,13.4l-4.92,1.37c-1.73,.48-3.46-.49-3.92-2.13,0,0-9.02-26.79-14.45-46.26-1.24-4.43-2.27-8.51-2.96-11.75-.48-1.73,.39-3.43,2.1-4.01,2.38-.77,6.79-2.1,11.1-3.41l.19-.05c1.93-.54,3.64,.75,4.18,2.68,0,0,10.17,38,10.2,38.09l1.3,5.04,.05,.19c.35,1.25,1.68,1.92,2.93,1.57,0,0,12.04-3.04,22.35-5.92,5.11-1.42,9.9-2.86,12.55-3.81,1.35-.38,2.83,.46,3.3,1.78l2.82,10.12c.38,1.35-.48,2.73-1.74,3.08Zm-10.02-45.62c.19,.67,.28,1.38,.5,2.15,3.56,16.15-5.01,24.15-11.28,25.9-5.11,1.42-17.79,2.88-23.71-16.87l-.19-.67c-5.54-19.86,12.18-24.9,12.18-24.9,11.86-3.3,19.31,2.93,22.51,14.4Zm-10.29,3.7c-2.36-8.48-8.16-7.29-9.22-6.99l-.19,.05s-6.37,2.5-4.11,10.6l.05,.19c2.39,8.58,6.25,11.24,10.39,10.09,.39-.11,6.41-1.99,3.07-13.95Z"/>
      <path class="cls-13" d="M1814.81,202.62c-3.25,1.01-6.43,1.9-9.23,2.67-1.64,.46-3.27-.54-3.72-2.18,0,0-9.09-27.39-14.54-46.96-1.18-4.24-2.23-8-2.9-11.14-.46-1.64,.39-3.43,1.94-3.86,2.26-.84,6.57-2.14,10.59-3.37,1.93-.54,3.61,.65,4.18,2.68,0,0,10.2,38.09,10.23,38.19l5.47,19.98c.48,1.74-.37,3.53-2.01,3.99Z"/>
    </g>
  </g>
</svg>